<svg xmlns="http://www.w3.org/2000/svg" xml:space="preserve" width="470.566" height="472.16" viewBox="-206.049 -206.68 470.566 472.16"><path d="M29.24-206.68h235.277v472.16H29.24z" style="fill:#e8423f"/><path d="M-206.049-206.68H29.24v472.16h-235.289z" style="fill:#fff"/><path d="m159.59-81.294-31.281 20.312 10.703-34.754-28.344-18.992h35.555l13.367-36.367 13.375 36.367h35.555L180.449-95.47l10.711 34.488z" style="fill:#fff" transform="translate(-1.776 -1.776)"/><path d="m159.59-81.294-31.281 20.312 10.703-34.754-28.344-18.992h35.555l13.367-36.367 13.375 36.367h35.555L180.449-95.47l10.711 34.488z" style="fill:none;stroke:#010202;stroke-width:3.55200005" transform="translate(-1.776 -1.776)"/><path d="m159.59 7.143-31.281 20.313L139.012-7.31l-28.344-18.984h35.555l13.367-36.36 13.375 36.36h35.555L180.449-7.033l10.711 34.489z" style="fill:#fff" transform="translate(-1.776 -1.776)"/><path d="m159.59 7.143-31.281 20.313L139.012-7.31l-28.344-18.984h35.555l13.367-36.36 13.375 36.36h35.555L180.449-7.033l10.711 34.489z" style="fill:none;stroke:#010202;stroke-width:3.55200005" transform="translate(-1.776 -1.776)"/><path d="m159.59 95.569-31.281 20.312 10.703-34.757-28.344-18.985h35.555l13.367-36.371 13.375 36.371h35.555l-28.071 19.25 10.711 34.492z" style="fill:#fff" transform="translate(-1.776 -1.776)"/><path d="m159.59 95.569-31.281 20.312 10.703-34.757-28.344-18.985h35.555l13.367-36.371 13.375 36.371h35.555l-28.071 19.25 10.711 34.492z" style="fill:none;stroke:#010202;stroke-width:3.55200005" transform="translate(-1.776 -1.776)"/><path d="m159.59 183.983-31.281 20.328 10.703-34.758-28.344-18.984h35.555l13.367-36.36 13.375 36.36h35.555l-28.071 19.258 10.711 34.484z" style="fill:#fff" transform="translate(-1.776 -1.776)"/><path d="m159.59 183.983-31.281 20.328 10.703-34.758-28.344-18.984h35.555l13.367-36.36 13.375 36.36h35.555l-28.071 19.258 10.711 34.484z" style="fill:none;stroke:#010202;stroke-width:3.55200005" transform="translate(-1.776 -1.776)"/><path d="m-97.488-81.294-31.282 20.312 10.688-34.754-28.328-18.992h35.555l13.367-36.367 13.367 36.367h35.578l-28.09 19.258 10.703 34.488z" style="fill:#e8423f" transform="translate(-1.776 -1.776)"/><path d="m-97.488-81.294-31.282 20.312 10.688-34.754-28.328-18.992h35.555l13.367-36.367 13.367 36.367h35.578l-28.09 19.258 10.703 34.488z" style="fill:none;stroke:#010202;stroke-width:3.55200005" transform="translate(-1.776 -1.776)"/><path d="m-97.488 7.143-31.282 20.313 10.688-34.766-28.328-18.984h35.555l13.367-36.36 13.367 36.36h35.578l-28.09 19.261 10.703 34.489z" style="fill:#e8423f" transform="translate(-1.776 -1.776)"/><path d="m-97.488 7.143-31.282 20.313 10.688-34.766-28.328-18.984h35.555l13.367-36.36 13.367 36.36h35.578l-28.09 19.261 10.703 34.489z" style="fill:none;stroke:#010202;stroke-width:3.55200005" transform="translate(-1.776 -1.776)"/><path d="m-97.488 95.569-31.282 20.312 10.688-34.757-28.328-18.985h35.555l13.367-36.371 13.367 36.371h35.578l-28.09 19.25 10.703 34.492z" style="fill:#e8423f" transform="translate(-1.776 -1.776)"/><path d="m-97.488 95.569-31.282 20.312 10.688-34.757-28.328-18.985h35.555l13.367-36.371 13.367 36.371h35.578l-28.09 19.25 10.703 34.492z" style="fill:none;stroke:#010202;stroke-width:3.55200005" transform="translate(-1.776 -1.776)"/><path d="m-97.488 183.983-31.282 20.328 10.688-34.758-28.328-18.984h35.555l13.367-36.36 13.367 36.36h35.578l-28.09 19.258 10.703 34.484z" style="fill:#e8423f" transform="translate(-1.776 -1.776)"/><path d="m-97.488 183.983-31.282 20.328 10.688-34.758-28.328-18.984h35.555l13.367-36.36 13.367 36.36h35.578l-28.09 19.258 10.703 34.484z" style="fill:none;stroke:#010202;stroke-width:3.55200005" transform="translate(-1.776 -1.776)"/><path d="M31-188.416v69.778L-.551-98.576l10.703-34.496-28.082-19.254h35.555z" style="fill:#e8423f" transform="translate(-1.776 -1.776)"/><path d="M31-118.638v-69.778l13.355 36.36h35.594L51.59-133.072l10.961 34.754z" style="fill:#fff" transform="translate(-1.776 -1.776)"/><path d="M31-118.638-.551-98.576l10.703-34.496-28.082-19.254h35.555L31-188.416l13.355 36.36h35.594L51.59-133.072l10.961 34.754z" style="fill:none;stroke:#010202;stroke-width:3.55200005" transform="translate(-1.776 -1.776)"/><path d="M31-99.99v69.797L-.551-10.134 10.152-44.63-17.93-63.888h35.555z" style="fill:#e8423f" transform="translate(-1.776 -1.776)"/><path d="M31-30.193V-99.99l13.355 36.36h35.594l-28.359 19L62.551-9.857z" style="fill:#fff" transform="translate(-1.776 -1.776)"/><path d="M31-30.193-.551-10.134 10.152-44.63-17.93-63.888h35.555L31-99.99l13.355 36.36h35.594l-28.359 19L62.551-9.857z" style="fill:none;stroke:#010202;stroke-width:3.55200005" transform="translate(-1.776 -1.776)"/><path d="M31-11.56v69.801L-.551 78.264l10.703-34.469-28.082-19.242h35.555z" style="fill:#e8423f" transform="translate(-1.776 -1.776)"/><path d="M31 58.241V-11.56l13.355 36.375h35.594L51.59 43.795l10.961 34.758z" style="fill:#fff" transform="translate(-1.776 -1.776)"/><path d="M31 58.241-.551 78.264l10.703-34.469-28.082-19.242h35.555L31-11.56l13.355 36.375h35.594L51.59 43.795l10.961 34.758z" style="fill:none;stroke:#010202;stroke-width:3.55200005" transform="translate(-1.776 -1.776)"/><path d="M31 76.866v69.789L-.551 166.702l10.703-34.461-28.082-19.274h35.555z" style="fill:#e8423f" transform="translate(-1.776 -1.776)"/><path d="M31 146.655V76.866l13.355 36.375h35.594l-28.359 19 10.961 34.758z" style="fill:#fff" transform="translate(-1.776 -1.776)"/><path d="M31 146.655-.551 166.702l10.703-34.461-28.082-19.274h35.555L31 76.866l13.355 36.375h35.594l-28.359 19 10.961 34.758z" style="fill:none;stroke:#010202;stroke-width:3.55200005" transform="translate(-1.776 -1.776)"/><path d="M31 165.311v69.797L-.551 255.155l10.703-34.5-28.082-19.266h35.555z" style="fill:#e8423f" transform="translate(-1.776 -1.776)"/><path d="M31 235.108v-69.797l13.355 36.359h35.594L51.59 220.655l10.961 34.75z" style="fill:#fff" transform="translate(-1.776 -1.776)"/><path d="m10.152 220.655-28.082-19.266h35.555L31 165.311l13.355 36.359h35.594L51.59 220.655l10.961 34.75L31 235.108-.551 255.155z" style="fill:none;stroke:#010202;stroke-width:3.55200005" transform="translate(-1.776 -1.776)"/><path stroke-miterlimit="10" d="M29.24-206.664v472.129" style="fill:none;stroke:#010202;stroke-width:3.55200005;stroke-miterlimit:10"/></svg>